<svg xmlns:xlink="http://www.w3.org/1999/xlink" width="10" height="10" viewBox="0 0 10 10" xmlns="http://www.w3.org/2000/svg"><path d="M1.14954 0.187591C1.02351 0.0658605 0.854717 -0.00149734 0.67951 2.52624e-05C0.504303 0.00154786 0.336704 0.0718293 0.21281 0.195732C0.0889151 0.319635 0.0186384 0.487245 0.0171159 0.662464C0.0155934 0.837682 0.0829467 1.00649 0.204669 1.13253L4.06367 4.99179L0.204001 8.85105C0.140179 8.9127 0.0892719 8.98644 0.0542508 9.06797C0.0192298 9.1495 0.00079624 9.23719 2.52302e-05 9.32592C-0.00074578 9.41466 0.0161613 9.50265 0.0497603 9.58478C0.0833593 9.66691 0.132977 9.74152 0.195719 9.80427C0.25846 9.86701 0.333069 9.91663 0.415192 9.95024C0.497314 9.98384 0.585306 10.0007 0.674032 9.99998C0.762759 9.9992 0.850443 9.98077 0.93197 9.94574C1.0135 9.91072 1.08723 9.85981 1.14887 9.79598L5.00855 5.93672L8.86755 9.79598C8.99358 9.91772 9.16237 9.98507 9.33758 9.98355C9.51279 9.98203 9.68039 9.91175 9.80428 9.78784C9.92818 9.66394 9.99845 9.49633 9.99997 9.32111C10.0015 9.14589 9.93414 8.97709 9.81242 8.85105L5.95342 4.99179L9.81242 1.13253C9.93414 1.00649 10.0015 0.837682 9.99997 0.662464C9.99845 0.487245 9.92818 0.319635 9.80428 0.195732C9.68039 0.0718293 9.51279 0.00154786 9.33758 2.52624e-05C9.16237 -0.00149734 8.99358 0.0658605 8.86755 0.187591L5.00855 4.04685L1.14954 0.186923V0.187591Z" fill="#7A7A7F"></path></svg>